<svg xmlns="http://www.w3.org/2000/svg" version="1.1" xmlns:xlink="http://www.w3.org/1999/xlink" viewBox="0 0 700 700" style="overflow: hidden; display: block;" width="420 " height="420 "><defs></defs><g id="two-0" transform="matrix(1 0 0 1 0 0)" opacity="1"><path transform="matrix(1 0 0 1 350 350)" id="two-946" d="M 222.988414 30.649052 C 213.56707 61.74408 134.234106 3.880811 124.623545 34.917879 C 117.209868 58.860161 166.414826 64.11051 185.364358 80.515103 C 214.634645 105.854363 290.664573 131.535704 268.50761 163.283094 C 235.510726 210.56236 165.832319 104.355713 110.103667 89.575977 C 100.926378 87.142078 87.096556 79.572477 81.43127 87.1916 C 67.95375 105.317232 119.833461 132.646365 106.503067 150.880472 C 100.776133 158.714113 83.895177 141.929321 77.163165 148.91815 C 54.918371 172.011551 117.226477 234.119989 87.270743 245.556338 C 60.458831 255.792455 64.030263 167.373091 36.373265 175.037764 C -14.495714 189.135248 73.794765 320.511504 22.875343 334.425687 C -0.054702 340.691525 -9.121488 297.40001 -18.859455 275.715459 C -31.034387 248.604262 -10.448375 196.001428 -39.056559 187.950477 C -58.830109 182.385779 -63.393669 239.700325 -82.605017 232.428239 C -103.139324 224.655372 -65.995676 175.021181 -86.004509 165.981167 C -113.216896 153.686579 -129.493972 210.328883 -156.875518 222.241977 C -174.930732 230.097393 -205.812582 248.070111 -215.87439 231.145031 C -246.427864 179.750694 -68.554161 132.850008 -106.535164 86.672783 C -148.893364 35.173772 -235.079919 215.594542 -288.158163 175.23286 C -302.704146 164.171824 -288.503182 135.788293 -278.072438 120.783904 C -248.470268 78.201853 -128.739185 89.926427 -143.198876 40.122443 C -160.10231 -18.098605 -301.581039 100.032899 -326.848877 44.924344 C -335.194137 26.723529 -288.163373 19.91261 -286.065524 0 C -284.355683 -16.229669 -318.851993 -28.46211 -310.945631 -42.738494 C -288.210856 -83.790293 -184.075352 -2.923507 -168.816533 -47.300175 C -159.695617 -73.826203 -245.808105 -76.193183 -234.131729 -101.697762 C -221.327996 -129.664815 -157.748315 -59.93382 -142.177785 -86.460227 C -124.388387 -116.766762 -231.592405 -143.132806 -208.592517 -169.7026 C -180.927727 -201.661354 -128.505768 -75.67477 -98.052998 -104.989125 C -60.18145 -141.444923 -194.581884 -197.383967 -173.238358 -245.42284 C -167.60258 -258.107548 -145.94868 -258.618986 -132.412929 -255.545352 C -107.870354 -249.972341 -91.801683 -224.377633 -73.575714 -207.022217 C -59.520659 -193.638495 -53.09115 -160.137291 -33.982714 -163.533797 C -17.168353 -166.522534 -20.178654 -195.369661 -14.464483 -211.463248 C -0.324814 -251.286691 -18.777697 -326.653192 22.843908 -333.966117 C 42.591857 -337.435837 49.211017 -302.68643 59.298092 -285.35809 C 68.939898 -268.79467 64.283538 -238.090145 82.493451 -232.114326 C 102.07615 -225.688008 119.761093 -275.464736 136.51341 -263.458923 C 163.329553 -244.24071 88.995542 -183.228094 116.787237 -165.449823 C 157.732616 -139.257175 187.392058 -257.768809 235.697738 -252.370656 C 251.127545 -250.646377 263.8929 -232.192389 266.614428 -216.906926 C 271.030931 -192.101626 254.357087 -165.843895 239.389658 -145.576077 C 209.562452 -105.186217 114.685425 -101.882162 119.493382 -51.903301 C 120.320585 -43.304502 134.521312 -42.429834 142.815419 -40.015005 C 170.667668 -31.905821 223.477933 -59.846794 230.322441 -31.657091 C 234.878754 -12.891519 181.687964 -19.30206 181.107275 -0.000001 C 180.592275 17.118568 227.954499 14.258548 222.988414 30.649052 Z " fill="#F6FFF8" stroke="undefined" stroke-width="1" stroke-opacity="1" fill-opacity="1" visibility="visible" stroke-linecap="butt" stroke-linejoin="miter" stroke-miterlimit="4"></path></g></svg>